<svg xmlns="http://www.w3.org/2000/svg" xmlns:xlink="http://www.w3.org/1999/xlink" width="89.49" height="89.49" viewBox="0 0 89.49 89.49"><defs><filter id="a" x="0" y="0" width="89.49" height="89.49" filterUnits="userSpaceOnUse"><feOffset dy="3" input="SourceAlpha"/><feGaussianBlur stdDeviation="5" result="b"/><feFlood flood-color="#7ad06d" flood-opacity="0.502"/><feComposite operator="in" in2="b"/><feComposite in="SourceGraphic"/></filter></defs><g transform="translate(-1564 -666)"><g transform="matrix(1, 0, 0, 1, 1564, 666)" filter="url(#a)"><circle cx="29.745" cy="29.745" r="29.745" transform="translate(15 12)" fill="#7ad06d"/></g><g transform="translate(1594.864 693.864)"><path d="M15.364.017A14.332,14.332,0,0,0,1.69,14.3a14.105,14.105,0,0,0,1.565,6.432L1.729,28.086a.557.557,0,0,0,.677.652l7.26-1.706A14.405,14.405,0,0,0,30.436,14.717,14.322,14.322,0,0,0,15.364.017Zm8.663,22.14a11.336,11.336,0,0,1-12.97,2.106l-1.011-.5L5.594,24.809,6.531,20.3l-.5-.968A11.106,11.106,0,0,1,8.107,6.365a11.322,11.322,0,0,1,15.92,0,11.1,11.1,0,0,1,0,15.791Z" transform="translate(-1.69 0)" fill="#fff"/><path d="M118.8,117.465l-2.785-.8a1.038,1.038,0,0,0-1.027.271l-.681.694a1.015,1.015,0,0,1-1.1.233,14.866,14.866,0,0,1-4.8-4.229,1.014,1.014,0,0,1,.08-1.124l.595-.769a1.038,1.038,0,0,0,.128-1.054l-1.172-2.65a1.039,1.039,0,0,0-1.622-.371,4.684,4.684,0,0,0-1.812,2.763c-.2,1.951.639,4.411,3.8,7.364,3.656,3.412,6.583,3.863,8.489,3.4a4.684,4.684,0,0,0,2.49-2.171A1.039,1.039,0,0,0,118.8,117.465Z" transform="translate(-97.447 -100.086)" fill="#fff"/></g></g></svg>